<svg xmlns:serif="http://www.serif.com/" xmlns="http://www.w3.org/2000/svg" xmlns:xlink="http://www.w3.org/1999/xlink" id="Layer_1" x="0px" y="0px" viewBox="0 0 400 88.4" style="enable-background:new 0 0 400 88.4;" xml:space="preserve"><style type="text/css">	.st0{fill:#797B79;}	.st1{fill:#7E8691;}	.st2{fill:#6E6F73;}	.st3{fill:#1C77BE;}	.st4{fill:#EE4266;}	.st5{fill:#101829;}</style><g>	<g>		<g>			<g>				<path class="st0" d="M158.86,72.62c-2.12,0-3.49-1.45-3.49-3.68c0-2.23,1.33-3.73,3.3-3.73c1.97,0,3.29,1.52,3.29,3.78v0.35     h-5.29c0.12,1.39,0.89,2.15,2.17,2.15c0.84,0,1.41-0.3,1.88-1l0.03-0.04l0.99,0.64l-0.03,0.04     C161.07,72.09,160.07,72.62,158.86,72.62z M160.63,68.27c-0.2-1.2-0.95-1.94-1.96-1.94c-1.04,0-1.77,0.72-1.96,1.94H160.63z"></path>				<path class="st0" d="M158.83,71.54c0.71,0,1.37-0.2,1.92-1.02l0.9,0.58c-0.61,0.93-1.6,1.47-2.8,1.47     c-2.1,0-3.44-1.44-3.44-3.63c0-2.23,1.35-3.68,3.25-3.68c1.92,0,3.24,1.47,3.24,3.72v0.3h-5.3     C156.71,70.64,157.44,71.54,158.83,71.54z M156.64,68.33h4.04c-0.19-1.28-0.97-2.04-2.02-2.04     C157.63,66.28,156.83,67.02,156.64,68.33z"></path>				<path class="st0" d="M168.14,72.45v-4.56c0-0.99-0.52-1.56-1.42-1.56c-1.2,0-1.94,1-1.94,1.93v4.18h-1.24v-7.07h1.23v0.78     c0.23-0.3,0.9-0.95,2.23-0.95c1.45,0,2.38,0.95,2.38,2.43v4.81H168.14z"></path>				<path class="st0" d="M169.33,67.64v4.76h-1.13v-4.5c0-1.04-0.57-1.61-1.47-1.61c-1.22,0-2,1.01-2,1.98v4.13h-1.13v-6.96h1.12     v0.89c0.21-0.35,0.9-1.07,2.28-1.07C168.37,65.26,169.33,66.14,169.33,67.64z"></path>				<path class="st0" d="M176.01,72.45V67.9c0-0.99-0.52-1.56-1.42-1.56c-1.2,0-1.94,1-1.94,1.93v4.18h-1.24v-9.72h1.24v3.41     c0.35-0.46,1.1-0.93,2.2-0.93c1.45,0,2.4,0.95,2.4,2.43v4.81H176.01z"></path>				<path class="st0" d="M177.2,67.64v4.76h-1.13v-4.5c0-1.04-0.57-1.61-1.47-1.61c-1.24,0-2,1.01-2,1.98v4.12h-1.13v-9.61h1.13     v3.52c0.22-0.37,0.91-1.05,2.26-1.05C176.24,65.26,177.2,66.14,177.2,67.64z"></path>				<g>					<g>						<path class="st0" d="M181.26,72.62c-1.47,0-2.45-0.89-2.45-2.21c0-1.53,1.15-2.27,3.52-2.27h1.06v-0.01       c0-1.16-0.55-1.78-1.59-1.78c-0.74,0-1.34,0.32-1.77,0.96l-0.03,0.05l-0.9-0.73l0.03-0.04c0.63-0.89,1.56-1.36,2.7-1.36       c1.75,0,2.8,1.05,2.8,2.81v4.42h-1.23V71.7C183.14,72.03,182.53,72.62,181.26,72.62z M182.61,69.17       c-1.53,0-2.56,0.21-2.56,1.22c0,0.73,0.49,1.14,1.35,1.14c1.27,0,1.98-1.04,1.98-1.76v-0.61H182.61z"></path>					</g>				</g>				<g>					<g>						<path class="st0" d="M184.56,68.03v4.37h-1.13v-0.87c-0.29,0.5-0.99,1.03-2.18,1.03c-1.39,0-2.4-0.81-2.4-2.16       c0-1.61,1.31-2.22,3.46-2.22h1.11v-0.07c0-1.25-0.62-1.83-1.64-1.83c-0.77,0-1.38,0.35-1.82,0.98l-0.81-0.66       c0.61-0.86,1.5-1.33,2.66-1.33C183.39,65.27,184.56,66.14,184.56,68.03z M183.43,69.12h-0.82c-1.52,0-2.61,0.21-2.61,1.27       c0,0.77,0.54,1.19,1.4,1.19c1.31,0,2.03-1.09,2.03-1.81V69.12z"></path>					</g>				</g>				<path class="st0" d="M191.24,72.45v-4.56c0-0.99-0.52-1.56-1.42-1.56c-1.2,0-1.94,1-1.94,1.93v4.18h-1.24v-7.07h1.23v0.78     c0.23-0.3,0.9-0.95,2.23-0.95c1.45,0,2.38,0.95,2.38,2.43v4.81H191.24z"></path>				<path class="st0" d="M192.43,67.64v4.76h-1.13v-4.5c0-1.04-0.57-1.61-1.47-1.61c-1.22,0-2,1.01-2,1.98v4.13h-1.13v-6.96h1.12     v0.89c0.21-0.35,0.9-1.07,2.28-1.07C191.47,65.26,192.43,66.14,192.43,67.64z"></path>				<path class="st0" d="M197.43,72.62c-2.07,0-3.4-1.45-3.4-3.7c0-2.24,1.33-3.69,3.38-3.69c1.27,0,2.21,0.54,2.81,1.6l0.03,0.05     l-1.06,0.6l-0.03-0.04c-0.42-0.71-0.96-1.04-1.7-1.04c-1.3,0-2.14,1-2.14,2.54c0,1.55,0.84,2.54,2.14,2.54     c0.75,0,1.29-0.36,1.7-1.13l0.02-0.04l1.09,0.55l-0.02,0.05C199.62,72.08,198.72,72.62,197.43,72.62z"></path>				<path class="st0" d="M194.08,68.93c0-2.22,1.33-3.64,3.32-3.64c1.07,0,2.1,0.4,2.76,1.57l-0.97,0.55     c-0.45-0.75-1.02-1.07-1.75-1.07c-1.34,0-2.2,1.01-2.2,2.59c0,1.6,0.87,2.6,2.2,2.6c0.75,0,1.32-0.36,1.75-1.15l0.99,0.51     c-0.71,1.33-1.7,1.7-2.76,1.7C195.4,72.57,194.08,71.14,194.08,68.93z"></path>				<path class="st0" d="M201.73,72.45v-7.07h1.24v7.07H201.73z M201.66,64.13v-1.4h1.37v1.4H201.66z"></path>				<path class="st0" d="M201.72,62.79h1.26v1.3h-1.26V62.79z M201.78,65.44h1.13v6.96h-1.13V65.44z"></path>				<path class="st0" d="M209.66,72.45v-4.56c0-0.99-0.52-1.56-1.42-1.56c-1.2,0-1.94,1-1.94,1.93v4.18h-1.24v-7.07h1.23v0.78     c0.23-0.3,0.9-0.95,2.23-0.95c1.45,0,2.38,0.95,2.38,2.43v4.81H209.66z"></path>				<path class="st0" d="M210.85,67.64v4.76h-1.13v-4.5c0-1.04-0.57-1.61-1.47-1.61c-1.22,0-2,1.01-2,1.98v4.13h-1.13v-6.96h1.12     v0.89c0.21-0.35,0.9-1.07,2.28-1.07C209.89,65.26,210.85,66.14,210.85,67.64z"></path>				<path class="st0" d="M215.59,74.96c-1.22,0-2.15-0.42-2.95-1.32l-0.03-0.04l0.84-0.83l0.04,0.04c0.55,0.67,1.27,1.02,2.14,1.02     c1.28,0,2.1-0.8,2.1-2.03v-0.37c-0.5,0.62-1.2,0.94-2.08,0.94c-1.92,0-3.2-1.44-3.2-3.58c0-2.14,1.28-3.58,3.2-3.58     c1.1,0,1.73,0.49,2.09,0.95v-0.77h1.23v6.37C218.97,73.73,217.67,74.96,215.59,74.96z M215.76,66.36     c-1.23,0-2.02,0.95-2.02,2.43c0,1.48,0.79,2.43,2.02,2.43c0.97,0,2.01-0.64,2.01-2.43C217.77,67,216.73,66.36,215.76,66.36z"></path>				<path class="st0" d="M218.91,65.44v6.32c0,1.92-1.24,3.15-3.32,3.15c-1.23,0-2.14-0.43-2.91-1.3l0.76-0.75     c0.59,0.72,1.33,1.03,2.18,1.03c1.41,0,2.16-0.91,2.16-2.08v-0.52c-0.4,0.56-1.05,1.04-2.13,1.04c-1.85,0-3.15-1.39-3.15-3.53     c0-2.15,1.3-3.53,3.14-3.53c1.11,0,1.78,0.51,2.14,1.05v-0.88H218.91z M217.82,68.79c0-1.69-0.95-2.48-2.06-2.48     c-1.21,0-2.08,0.94-2.08,2.48c0,1.53,0.86,2.48,2.08,2.48C216.87,71.28,217.82,70.49,217.82,68.79z"></path>				<path class="st0" d="M224.68,72.45v-5.96h-1.03v-1.11h1.03v-0.71c0-1.3,0.8-2.11,2.07-2.11c0.32,0,0.6,0.05,0.94,0.17l0.05,0.02     l-0.32,1.04l-0.05-0.01c-0.2-0.05-0.38-0.08-0.57-0.08c-0.66,0-0.88,0.32-0.88,1.26v0.43h1.68v1.11h-1.68v5.96H224.68z"></path>				<path class="st0" d="M225.86,65.44h1.68v1h-1.68v5.96h-1.13v-5.96h-1.03v-1h1.03v-0.76c0-1.4,0.89-2.06,2.02-2.06     c0.35,0,0.62,0.06,0.92,0.17l-0.29,0.94c-0.22-0.06-0.41-0.08-0.58-0.08c-0.74,0-0.93,0.42-0.93,1.31V65.44z"></path>				<path class="st0" d="M231,72.62c-1.41,0-2.36-0.97-2.36-2.42v-4.81h1.24v4.56c0,0.98,0.52,1.56,1.4,1.56     c1.2,0,1.94-1.01,1.94-1.94v-4.18h1.24v7.07h-1.23v-0.77C232.99,71.98,232.33,72.62,231,72.62z"></path>				<path class="st0" d="M234.41,65.44v6.96h-1.13v-0.88c-0.21,0.35-0.91,1.05-2.28,1.05c-1.34,0-2.31-0.88-2.31-2.37v-4.76h1.13     v4.51c0,1.04,0.57,1.62,1.45,1.62c1.22,0,2-1.03,2-2v-4.13H234.41z"></path>				<path class="st0" d="M238.76,72.62c-1.28,0-1.87-0.57-1.87-1.8v-4.33h-1.02v-1.11h1.02v-1.88h1.24v1.88h1.74v1.11h-1.74v4.07     c0,0.73,0.17,0.94,0.76,0.94c0.25,0,0.45-0.04,0.76-0.15l0.05-0.02l0.29,1.05l-0.05,0.02     C239.52,72.54,239.11,72.62,238.76,72.62z"></path>				<path class="st0" d="M239.92,72.34c-0.4,0.14-0.8,0.22-1.16,0.22c-1.12,0-1.82-0.44-1.82-1.75v-4.38h-1.02v-1h1.02v-1.88h1.13     v1.88h1.74v1h-1.74v4.12c0,0.75,0.19,0.99,0.81,0.99c0.26,0,0.46-0.04,0.78-0.15L239.92,72.34z"></path>				<path class="st0" d="M243.69,72.62c-1.41,0-2.36-0.97-2.36-2.42v-4.81h1.24v4.56c0,0.98,0.52,1.56,1.4,1.56     c1.2,0,1.94-1.01,1.94-1.94v-4.18h1.24v7.07h-1.23v-0.77C245.68,71.98,245.01,72.62,243.69,72.62z"></path>				<path class="st0" d="M247.09,65.44v6.96h-1.13v-0.88c-0.21,0.35-0.91,1.05-2.28,1.05c-1.34,0-2.31-0.88-2.31-2.37v-4.76h1.13     v4.51c0,1.04,0.57,1.62,1.45,1.62c1.22,0,2-1.03,2-2v-4.13H247.09z"></path>				<path class="st0" d="M249.24,72.45v-7.07h1.23v0.99c0.27-0.45,0.87-1.16,2.01-1.16c0.1,0,0.45,0.01,0.79,0.11l0.05,0.01     l-0.31,1.17l-0.05-0.01c-0.16-0.04-0.37-0.06-0.55-0.06c-1.1,0-1.93,1.07-1.93,2.48v3.53H249.24z"></path>				<path class="st0" d="M253.25,65.38l-0.28,1.07c-0.15-0.03-0.37-0.06-0.56-0.06c-1.13,0-1.98,1.07-1.98,2.53v3.48h-1.13v-6.96     h1.12v1.14c0.21-0.42,0.81-1.31,2.06-1.31C252.64,65.27,252.96,65.29,253.25,65.38z"></path>				<path class="st0" d="M257.14,72.62c-2.12,0-3.49-1.45-3.49-3.68c0-2.23,1.33-3.73,3.3-3.73c1.97,0,3.29,1.52,3.29,3.78v0.35     h-5.3c0.12,1.39,0.89,2.15,2.17,2.15c0.85,0,1.41-0.3,1.88-1l0.03-0.04l0.99,0.64l-0.03,0.04     C259.35,72.09,258.35,72.62,257.14,72.62z M258.91,68.27c-0.2-1.2-0.95-1.94-1.96-1.94c-1.04,0-1.77,0.72-1.96,1.94H258.91z"></path>				<path class="st0" d="M257.11,71.54c0.71,0,1.37-0.2,1.92-1.02l0.9,0.58c-0.61,0.93-1.6,1.47-2.8,1.47     c-2.1,0-3.44-1.44-3.44-3.63c0-2.23,1.35-3.68,3.25-3.68c1.92,0,3.24,1.47,3.24,3.72v0.3h-5.3     C254.99,70.64,255.72,71.54,257.11,71.54z M254.92,68.33h4.05c-0.19-1.28-0.97-2.04-2.02-2.04     C255.9,66.28,255.11,67.02,254.92,68.33z"></path>				<polygon class="st0" points="271.21,72.45 269.43,66.99 267.65,72.45 266.35,72.45 264.13,65.38 265.5,65.38 267.04,70.78      268.78,65.38 270.07,65.38 271.8,70.77 273.35,65.38 274.72,65.38 272.49,72.45     "></polygon>				<path class="st0" d="M274.65,65.44l-2.2,6.96h-1.21l-1.82-5.57l-1.82,5.57h-1.21l-2.2-6.96h1.27l1.57,5.52l1.78-5.52h1.21     l1.78,5.51l1.58-5.51H274.65z"></path>				<path class="st0" d="M275.94,72.45v-7.07h1.24v7.07H275.94z M275.88,64.13v-1.4h1.37v1.4H275.88z"></path>				<path class="st0" d="M275.93,62.79h1.26v1.3h-1.26V62.79z M275.99,65.44h1.13v6.96h-1.13V65.44z"></path>				<path class="st0" d="M281.47,72.62c-1.28,0-1.87-0.57-1.87-1.8v-4.33h-1.02v-1.11h1.02v-1.88h1.24v1.88h1.74v1.11h-1.74v4.07     c0,0.73,0.17,0.94,0.76,0.94c0.25,0,0.45-0.04,0.76-0.15l0.05-0.02l0.29,1.05l-0.05,0.02     C282.23,72.54,281.83,72.62,281.47,72.62z"></path>				<path class="st0" d="M282.63,72.34c-0.4,0.14-0.8,0.22-1.16,0.22c-1.12,0-1.82-0.44-1.82-1.75v-4.38h-1.02v-1h1.02v-1.88h1.13     v1.88h1.74v1h-1.74v4.12c0,0.75,0.19,0.99,0.81,0.99c0.26,0,0.46-0.04,0.78-0.15L282.63,72.34z"></path>				<path class="st0" d="M288.78,72.45V67.9c0-0.99-0.52-1.56-1.42-1.56c-1.2,0-1.94,1-1.94,1.93v4.18h-1.24v-9.72h1.24v3.41     c0.35-0.46,1.1-0.93,2.2-0.93c1.45,0,2.4,0.95,2.4,2.43v4.81H288.78z"></path>				<path class="st0" d="M289.97,67.64v4.76h-1.13v-4.5c0-1.04-0.57-1.61-1.47-1.61c-1.24,0-2,1.01-2,1.98v4.12h-1.13v-9.61h1.13     v3.52c0.22-0.37,0.91-1.05,2.26-1.05C289.01,65.26,289.97,66.14,289.97,67.64z"></path>				<path class="st0" d="M297.53,72.62c-1.28,0-1.87-0.57-1.87-1.8v-4.33h-1.02v-1.11h1.02v-1.88h1.24v1.88h1.74v1.11h-1.74v4.07     c0,0.73,0.17,0.94,0.76,0.94c0.25,0,0.45-0.04,0.76-0.15l0.05-0.02l0.29,1.05l-0.05,0.02     C298.29,72.54,297.88,72.62,297.53,72.62z"></path>				<path class="st0" d="M298.69,72.34c-0.4,0.14-0.8,0.22-1.16,0.22c-1.12,0-1.82-0.44-1.82-1.75v-4.38h-1.02v-1h1.02v-1.88h1.13     v1.88h1.74v1h-1.74v4.12c0,0.75,0.19,0.99,0.81,0.99c0.26,0,0.46-0.04,0.78-0.15L298.69,72.34z"></path>				<path class="st0" d="M303.03,72.62c-2.12,0-3.49-1.45-3.49-3.68c0-2.23,1.33-3.73,3.3-3.73c1.97,0,3.29,1.52,3.29,3.78v0.35     h-5.3c0.12,1.39,0.89,2.15,2.17,2.15c0.85,0,1.41-0.3,1.88-1l0.03-0.04l0.99,0.64l-0.03,0.04     C305.25,72.09,304.24,72.62,303.03,72.62z M304.8,68.27c-0.2-1.2-0.95-1.94-1.96-1.94c-1.04,0-1.77,0.72-1.96,1.94H304.8z"></path>				<path class="st0" d="M303.01,71.54c0.71,0,1.37-0.2,1.92-1.02l0.9,0.58c-0.61,0.93-1.6,1.47-2.8,1.47     c-2.1,0-3.44-1.44-3.44-3.63c0-2.23,1.35-3.68,3.25-3.68c1.92,0,3.24,1.47,3.24,3.72v0.3h-5.3     C300.88,70.64,301.61,71.54,303.01,71.54z M300.82,68.33h4.05c-0.19-1.28-0.97-2.04-2.02-2.04     C301.8,66.28,301,67.02,300.82,68.33z"></path>				<path class="st0" d="M310.64,72.62c-2.07,0-3.4-1.45-3.4-3.7c0-2.24,1.33-3.69,3.38-3.69c1.27,0,2.21,0.54,2.81,1.6l0.03,0.05     l-1.06,0.6l-0.03-0.04c-0.42-0.71-0.96-1.04-1.7-1.04c-1.3,0-2.14,1-2.14,2.54c0,1.55,0.84,2.54,2.14,2.54     c0.75,0,1.29-0.36,1.7-1.13l0.02-0.04l1.09,0.55l-0.02,0.05C312.82,72.08,311.93,72.62,310.64,72.62z"></path>				<path class="st0" d="M307.29,68.93c0-2.22,1.33-3.64,3.32-3.64c1.07,0,2.1,0.4,2.76,1.57l-0.97,0.55     c-0.45-0.75-1.02-1.07-1.75-1.07c-1.34,0-2.2,1.01-2.2,2.59c0,1.6,0.87,2.6,2.2,2.6c0.75,0,1.32-0.36,1.75-1.15l0.99,0.51     c-0.71,1.33-1.7,1.7-2.76,1.7C308.61,72.57,307.29,71.14,307.29,68.93z"></path>				<path class="st0" d="M319.53,72.45V67.9c0-0.99-0.52-1.56-1.42-1.56c-1.2,0-1.94,1-1.94,1.93v4.18h-1.24v-9.72h1.24v3.41     c0.35-0.46,1.1-0.93,2.2-0.93c1.45,0,2.4,0.95,2.4,2.43v4.81H319.53z"></path>				<path class="st0" d="M320.72,67.64v4.76h-1.13v-4.5c0-1.04-0.57-1.61-1.47-1.61c-1.24,0-2,1.01-2,1.98v4.12h-1.13v-9.61h1.13     v3.52c0.22-0.37,0.91-1.05,2.26-1.05C319.76,65.26,320.72,66.14,320.72,67.64z"></path>				<path class="st0" d="M327.4,72.45v-4.56c0-0.99-0.52-1.56-1.42-1.56c-1.2,0-1.94,1-1.94,1.93v4.18h-1.24v-7.07h1.23v0.78     c0.23-0.3,0.9-0.95,2.23-0.95c1.45,0,2.38,0.95,2.38,2.43v4.81H327.4z"></path>				<path class="st0" d="M328.59,67.64v4.76h-1.13v-4.5c0-1.04-0.57-1.61-1.47-1.61c-1.22,0-2,1.01-2,1.98v4.13h-1.13v-6.96h1.12     v0.89c0.21-0.35,0.9-1.07,2.28-1.07C327.63,65.26,328.59,66.14,328.59,67.64z"></path>				<path class="st0" d="M333.58,72.62c-2.03,0-3.39-1.49-3.39-3.71c0-2.21,1.36-3.7,3.39-3.7c2.03,0,3.39,1.49,3.39,3.7     C336.97,71.13,335.61,72.62,333.58,72.62z M333.58,66.37c-1.28,0-2.1,1-2.1,2.54c0,1.55,0.83,2.54,2.1,2.54     c1.28,0,2.1-1,2.1-2.54C335.68,67.37,334.86,66.37,333.58,66.37z"></path>				<path class="st0" d="M330.24,68.91c0-2.22,1.36-3.65,3.34-3.65c1.98,0,3.34,1.43,3.34,3.65s-1.36,3.66-3.34,3.66     C331.6,72.57,330.24,71.14,330.24,68.91z M335.73,68.91c0-1.59-0.86-2.6-2.16-2.6c-1.3,0-2.16,1.01-2.16,2.6     c0,1.59,0.85,2.6,2.16,2.6C334.87,71.51,335.73,70.5,335.73,68.91z"></path>				<rect x="338.58" y="62.73" class="st0" width="1.24" height="9.72"></rect>				<path class="st0" d="M338.63,62.79h1.13v9.61h-1.13V62.79z"></path>				<path class="st0" d="M344.82,72.62c-2.03,0-3.39-1.49-3.39-3.71c0-2.21,1.36-3.7,3.39-3.7c2.03,0,3.39,1.49,3.39,3.7     C348.21,71.13,346.85,72.62,344.82,72.62z M344.82,66.37c-1.28,0-2.1,1-2.1,2.54c0,1.55,0.83,2.54,2.1,2.54     c1.28,0,2.1-1,2.1-2.54C346.92,67.37,346.1,66.37,344.82,66.37z"></path>				<path class="st0" d="M341.48,68.91c0-2.22,1.36-3.65,3.34-3.65c1.98,0,3.34,1.43,3.34,3.65s-1.36,3.66-3.34,3.66     C342.84,72.57,341.48,71.14,341.48,68.91z M346.98,68.91c0-1.59-0.86-2.6-2.16-2.6c-1.3,0-2.16,1.01-2.16,2.6     c0,1.59,0.85,2.6,2.16,2.6C346.12,71.51,346.98,70.5,346.98,68.91z"></path>				<path class="st0" d="M352.49,74.96c-1.22,0-2.15-0.42-2.95-1.32l-0.03-0.04l0.84-0.83l0.04,0.04c0.55,0.67,1.27,1.02,2.14,1.02     c1.28,0,2.1-0.8,2.1-2.03v-0.37c-0.5,0.62-1.2,0.94-2.08,0.94c-1.92,0-3.2-1.44-3.2-3.58c0-2.14,1.28-3.58,3.2-3.58     c1.1,0,1.73,0.49,2.09,0.95v-0.77h1.23v6.37C355.86,73.73,354.57,74.96,352.49,74.96z M352.65,66.36     c-1.23,0-2.02,0.95-2.02,2.43c0,1.48,0.79,2.43,2.02,2.43c0.97,0,2.01-0.64,2.01-2.43C354.67,67,353.63,66.36,352.65,66.36z"></path>				<path class="st0" d="M355.81,65.44v6.32c0,1.92-1.24,3.15-3.32,3.15c-1.23,0-2.14-0.43-2.91-1.3l0.76-0.75     c0.59,0.72,1.33,1.03,2.18,1.03c1.41,0,2.16-0.91,2.16-2.08v-0.52c-0.4,0.56-1.05,1.04-2.13,1.04c-1.85,0-3.15-1.39-3.15-3.53     c0-2.15,1.3-3.53,3.14-3.53c1.11,0,1.78,0.51,2.14,1.05v-0.88H355.81z M354.72,68.79c0-1.69-0.95-2.48-2.06-2.48     c-1.21,0-2.08,0.94-2.08,2.48c0,1.53,0.86,2.48,2.08,2.48C353.77,71.28,354.72,70.49,354.72,68.79z"></path>				<path class="st0" d="M358.81,74.96c-0.31,0-0.73-0.06-1.06-0.16l-0.05-0.01l0.3-1.05l0.05,0.01c0.25,0.06,0.43,0.11,0.63,0.11     c0.37,0,0.51-0.12,0.68-0.57l0.41-1.12l-2.79-6.79h1.38l2.06,5.31l1.93-5.31h1.39l-3.26,8.27     C360.14,74.58,359.65,74.96,358.81,74.96z"></path>				<path class="st0" d="M363.68,65.44l-3.23,8.2c-0.37,0.94-0.86,1.27-1.64,1.27c-0.33,0-0.74-0.07-1.04-0.15l0.27-0.95     c0.23,0.06,0.43,0.11,0.65,0.11c0.39,0,0.55-0.13,0.73-0.6l0.42-1.13l-2.77-6.74h1.27l2.1,5.41l1.97-5.41H363.68z"></path>			</g>		</g>					<rect x="137.5" y="53.85" transform="matrix(-1.836970e-16 1 -1 -1.836970e-16 206.6726 -69.4903)" class="st0" width="1.16" height="29.47"></rect>		<rect x="123.4" y="68.06" class="st0" width="29.37" height="1.06"></rect>					<rect x="380.44" y="53.85" transform="matrix(-1.836970e-16 1 -1 -1.836970e-16 449.6111 -312.4287)" class="st0" width="1.16" height="29.47"></rect>		<rect x="366.34" y="68.06" class="st0" width="29.37" height="1.06"></rect>	</g>	<path class="st1" d="M78.53,82.64L78.53,82.64c-0.59,0-1.06-0.47-1.06-1.06V7.61c0-0.59,0.47-1.06,1.06-1.06l0,0  c0.59,0,1.06,0.47,1.06,1.06v73.98C79.59,82.17,79.11,82.64,78.53,82.64z"></path>	<g>		<rect x="25.27" y="37.5" class="st2" width="25.66" height="8.81"></rect>		<path class="st2" d="M53.93,21.58c0-5.05-4.09-9.14-9.14-9.14h-8.22v9.14L53.93,21.58L53.93,21.58z"></path>		<rect x="25.27" y="63.13" class="st2" width="29.07" height="9.14"></rect>		<polygon class="st3" points="31.18,12.44 0,12.44 0,21.58 10.38,21.58 10.38,72.27 20.66,72.27 20.66,21.58 31.18,21.58   "></polygon>	</g>	<line class="st4" x1="16.87" y1="56.01" x2="16.86" y2="56.01"></line>	<g>		<path class="st5" d="M117.99,26.19h-2.26c-2.47,0-4.35,0.42-5.63,1.26c-1.29,0.84-2.03,2.12-2.22,3.83h-0.87v-8.06h0.87   c0.11,0.33,0.36,0.58,0.77,0.74c0.41,0.16,0.98,0.24,1.69,0.24h22.21c0.72,0,1.28-0.08,1.69-0.24c0.41-0.16,0.67-0.4,0.77-0.74   h0.87v8.06h-0.87c-0.18-1.72-0.91-2.99-2.19-3.83c-1.29-0.84-3.17-1.26-5.66-1.26h-2.26v23.24c0,1.82,0.31,3.12,0.92,3.91   c0.61,0.79,1.65,1.23,3.12,1.34v0.87c-1.23-0.05-2.46-0.09-3.72-0.12c-1.25-0.03-2.51-0.04-3.77-0.04c-1.26,0-2.51,0.01-3.75,0.04   c-1.24,0.03-2.49,0.07-3.75,0.12v-0.87c1.45-0.11,2.49-0.55,3.1-1.34c0.61-0.79,0.92-2.09,0.92-3.91V26.19z"></path>		<path class="st5" d="M153.67,49.53c-1.16,2.24-2.6,3.93-4.33,5.07c-1.73,1.14-3.75,1.71-6.04,1.71c-2.96,0-5.47-1.04-7.52-3.11   c-2.06-2.07-3.09-4.61-3.09-7.6c0-3.08,1.05-5.66,3.16-7.75c2.11-2.08,4.71-3.12,7.81-3.12c2.75,0,5.02,0.81,6.81,2.42   c1.79,1.61,2.82,3.76,3.09,6.46h-14.52v0.16c0,3.05,0.62,5.4,1.86,7.05c1.24,1.65,3.01,2.48,5.3,2.48c1.24,0,2.43-0.35,3.57-1.06   c1.14-0.71,2.16-1.75,3.07-3.14L153.67,49.53z M139.04,42.36h8.17c-0.02-1.86-0.42-3.37-1.21-4.53c-0.79-1.16-1.78-1.75-2.97-1.75   c-1.14,0-2.07,0.56-2.78,1.69C139.53,38.91,139.13,40.44,139.04,42.36z"></path>		<path class="st5" d="M178.48,50.21c-1.12,1.93-2.59,3.42-4.4,4.49c-1.81,1.07-3.78,1.6-5.89,1.6c-3.2,0-5.84-0.99-7.9-2.98   c-2.07-1.99-3.1-4.51-3.1-7.58c0-3.24,1.12-5.89,3.35-7.94c2.23-2.06,5.12-3.09,8.68-3.09c1.16,0,2.42,0.13,3.78,0.38   c1.37,0.25,2.17,0.38,2.42,0.38c0.4,0,0.72-0.06,0.96-0.17c0.24-0.11,0.43-0.31,0.59-0.59h0.92v1.52c0,0.98,0.02,1.93,0.05,2.86   c0.03,0.93,0.09,1.84,0.16,2.73h-0.87c-0.46-1.7-1.37-3.1-2.74-4.2c-1.37-1.1-2.86-1.65-4.45-1.65c-1.89,0-3.43,0.8-4.62,2.4   c-1.19,1.6-1.79,3.7-1.79,6.29c0,2.56,0.68,4.64,2.04,6.25c1.36,1.61,3.09,2.42,5.19,2.42c1.35,0,2.61-0.3,3.78-0.91   c1.17-0.6,2.24-1.5,3.2-2.69L178.48,50.21z"></path>		<path class="st5" d="M190.89,50.92c0,1.1,0.22,1.92,0.66,2.46c0.44,0.53,1.26,0.98,2.47,1.35l-0.03,0.81   c-1.3-0.03-2.31-0.06-3.05-0.08c-0.74-0.02-1.42-0.03-2.05-0.03c-1.21,0-2.41,0.01-3.6,0.04c-1.19,0.03-2.39,0.07-3.6,0.12v-0.87   c1.26-0.37,2.11-0.8,2.56-1.31c0.45-0.51,0.67-1.32,0.67-2.44V28.18c0-1.14-0.22-1.97-0.67-2.49c-0.45-0.53-1.3-0.97-2.56-1.34   v-0.79c1.49-0.03,2.99-0.1,4.52-0.2c1.52-0.1,3.08-0.23,4.67-0.41v16.57c1.1-1.61,2.31-2.81,3.64-3.61   c1.32-0.8,2.78-1.19,4.37-1.19c2.12,0,3.72,0.61,4.82,1.84c1.09,1.23,1.64,3,1.64,5.33v9.09c0,1.12,0.22,1.93,0.66,2.44   c0.44,0.51,1.3,0.95,2.57,1.31l-0.03,0.87c-1.19-0.05-2.38-0.09-3.57-0.12c-1.19-0.03-2.39-0.04-3.6-0.04   c-0.63,0-1.31,0.01-2.05,0.03s-1.76,0.04-3.07,0.08v-0.81c1.21-0.37,2.03-0.82,2.47-1.35c0.44-0.53,0.66-1.35,0.66-2.46v-9.03   c0-1.24-0.27-2.17-0.81-2.8c-0.54-0.62-1.35-0.93-2.42-0.93c-0.91,0-1.78,0.25-2.61,0.76c-0.83,0.51-1.72,1.33-2.67,2.47V50.92z"></path>		<path class="st5" d="M235.33,24.19l0.03,6.83h-0.87c-0.35-1.72-1.02-2.96-2.01-3.73c-0.99-0.77-2.39-1.16-4.21-1.16h-5.54v12.58   h4.62c1.66,0,2.93-0.31,3.81-0.95c0.88-0.63,1.36-1.57,1.44-2.81h0.87v9.51h-0.87c-0.26-1.3-0.8-2.24-1.6-2.82   c-0.81-0.59-1.97-0.88-3.49-0.88h-4.78v8.53c0,1.59,0.36,2.7,1.08,3.32c0.72,0.62,1.99,0.93,3.81,0.93c2.08,0,3.71-0.42,4.88-1.26   c1.17-0.84,2.18-2.3,3.02-4.39l0.87,0.1l-0.71,7.54c-2.84-0.03-5.09-0.06-6.77-0.08c-1.68-0.02-3.26-0.03-4.73-0.03   c-2.59,0-6.59,0.04-12,0.11h-0.47v-0.87c1.45-0.11,2.49-0.55,3.1-1.34c0.61-0.79,0.92-2.09,0.92-3.91V30.31   c0-1.82-0.31-3.12-0.92-3.91c-0.61-0.79-1.65-1.23-3.1-1.34v-0.87c1.26,0.02,2.66,0.03,4.2,0.04c1.54,0.01,3.92,0.01,7.14,0.01   c3.29,0,5.79,0,7.51-0.01C232.27,24.22,233.86,24.21,235.33,24.19z"></path>		<path class="st5" d="M249.77,50.92c0,1.1,0.22,1.92,0.66,2.46c0.44,0.53,1.26,0.98,2.47,1.35l-0.03,0.81   c-1.3-0.03-2.31-0.06-3.05-0.08c-0.74-0.02-1.42-0.03-2.05-0.03c-1.21,0-2.41,0.01-3.6,0.04c-1.19,0.03-2.39,0.07-3.6,0.12v-0.87   c1.26-0.37,2.11-0.8,2.56-1.31c0.45-0.51,0.67-1.32,0.67-2.44V40c0-1.14-0.22-1.96-0.67-2.48c-0.45-0.52-1.3-0.96-2.56-1.33v-0.81   c1.31-0.02,2.71-0.08,4.19-0.18c1.48-0.11,3.15-0.26,5-0.47v4.81c1.1-1.61,2.31-2.81,3.64-3.61c1.32-0.8,2.78-1.19,4.37-1.19   c2.12,0,3.72,0.61,4.82,1.84c1.09,1.23,1.64,3,1.64,5.33v9.09c0,1.12,0.22,1.93,0.66,2.44c0.44,0.51,1.3,0.95,2.57,1.31   l-0.03,0.87c-1.19-0.05-2.38-0.09-3.57-0.12c-1.19-0.03-2.39-0.04-3.6-0.04c-0.63,0-1.31,0.01-2.05,0.03s-1.76,0.04-3.07,0.08   v-0.81c1.21-0.37,2.03-0.82,2.47-1.35c0.44-0.53,0.66-1.35,0.66-2.46v-9.03c0-1.24-0.27-2.17-0.81-2.8   c-0.54-0.62-1.35-0.93-2.42-0.93c-0.91,0-1.78,0.25-2.61,0.76c-0.83,0.51-1.72,1.33-2.67,2.47V50.92z"></path>		<path class="st5" d="M278.91,50.92c0,1.1,0.22,1.92,0.66,2.46c0.44,0.53,1.26,0.98,2.47,1.35L282,55.54   c-1.3-0.03-2.31-0.06-3.05-0.08c-0.74-0.02-1.42-0.03-2.05-0.03c-1.21,0-2.41,0.01-3.6,0.04c-1.19,0.03-2.39,0.07-3.6,0.12v-0.87   c1.26-0.37,2.11-0.8,2.56-1.31c0.45-0.51,0.67-1.32,0.67-2.44V28.18c0-1.14-0.22-1.97-0.67-2.49c-0.45-0.53-1.3-0.97-2.56-1.34   v-0.79c1.49-0.03,2.99-0.1,4.52-0.2c1.52-0.1,3.08-0.23,4.67-0.41v16.57c1.1-1.61,2.31-2.81,3.64-3.61   c1.32-0.8,2.78-1.19,4.37-1.19c2.12,0,3.72,0.61,4.82,1.84c1.09,1.23,1.64,3,1.64,5.33v9.09c0,1.12,0.22,1.93,0.66,2.44   c0.44,0.51,1.3,0.95,2.57,1.31l-0.03,0.87c-1.19-0.05-2.38-0.09-3.57-0.12c-1.19-0.03-2.39-0.04-3.6-0.04   c-0.63,0-1.31,0.01-2.05,0.03s-1.76,0.04-3.07,0.08v-0.81c1.21-0.37,2.03-0.82,2.47-1.35c0.44-0.53,0.66-1.35,0.66-2.46v-9.03   c0-1.24-0.27-2.17-0.81-2.8c-0.54-0.62-1.35-0.93-2.42-0.93c-0.91,0-1.78,0.25-2.61,0.76c-0.83,0.51-1.72,1.33-2.67,2.47V50.92z"></path>		<path class="st5" d="M312.19,53.18c-0.93,0.98-1.96,1.73-3.1,2.24c-1.14,0.52-2.33,0.77-3.57,0.77c-1.86,0-3.3-0.48-4.35-1.44   c-1.04-0.96-1.56-2.28-1.56-3.94c0-1.33,0.43-2.42,1.29-3.26c0.86-0.84,2.28-1.55,4.25-2.13c0.07-0.02,0.24-0.06,0.5-0.13   c2.24-0.54,4.42-1.23,6.54-2.07v-1.18c0-1.28-0.42-2.26-1.27-2.95c-0.85-0.69-2.08-1.04-3.69-1.04c-1.14,0-2.2,0.29-3.18,0.85   c-0.98,0.57-1.8,1.38-2.47,2.43l-0.79-0.42c0.77-2.05,1.89-3.59,3.37-4.63c1.48-1.04,3.3-1.56,5.45-1.56   c3.01,0,5.19,0.73,6.52,2.19c1.34,1.46,2.01,3.86,2.01,7.18v8.06c0,0.58,0.11,1.03,0.32,1.35c0.21,0.32,0.5,0.49,0.87,0.49   c0.35,0,0.66-0.14,0.93-0.43c0.27-0.29,0.49-0.69,0.64-1.19l0.74,0.32c-0.3,1.17-0.85,2.07-1.67,2.69   c-0.81,0.62-1.85,0.93-3.11,0.93c-1.33,0-2.38-0.26-3.15-0.77C312.94,55.01,312.44,54.23,312.19,53.18z M312.19,51.55v-6.88   c-2.15,0.65-3.7,1.42-4.63,2.32c-0.94,0.9-1.4,2.04-1.4,3.43c0,0.96,0.25,1.73,0.75,2.31c0.5,0.58,1.15,0.87,1.96,0.87   c0.52,0,1.07-0.17,1.64-0.52C311.07,52.73,311.63,52.22,312.19,51.55z"></path>		<path class="st5" d="M333.32,50.92c0,1.1,0.22,1.92,0.66,2.46c0.44,0.53,1.26,0.98,2.47,1.35l-0.03,0.81   c-1.3-0.03-2.31-0.06-3.05-0.08s-1.42-0.03-2.05-0.03c-1.21,0-2.41,0.01-3.6,0.04c-1.19,0.03-2.39,0.07-3.6,0.12v-0.87   c1.26-0.37,2.11-0.8,2.56-1.31c0.45-0.51,0.67-1.32,0.67-2.44V40c0-1.14-0.22-1.96-0.67-2.48c-0.45-0.52-1.3-0.96-2.56-1.33v-0.81   c1.31-0.02,2.71-0.08,4.19-0.18c1.48-0.11,3.15-0.26,5-0.47v4.81c1.1-1.61,2.31-2.81,3.64-3.61c1.32-0.8,2.78-1.19,4.37-1.19   c2.12,0,3.72,0.61,4.82,1.84c1.09,1.23,1.64,3,1.64,5.33v9.09c0,1.12,0.22,1.93,0.66,2.44c0.44,0.51,1.3,0.95,2.57,1.31   l-0.03,0.87c-1.19-0.05-2.38-0.09-3.57-0.12c-1.19-0.03-2.39-0.04-3.6-0.04c-0.63,0-1.31,0.01-2.05,0.03   c-0.74,0.02-1.76,0.04-3.07,0.08v-0.81c1.21-0.37,2.03-0.82,2.47-1.35c0.44-0.53,0.66-1.35,0.66-2.46v-9.03   c0-1.24-0.27-2.17-0.81-2.8c-0.54-0.62-1.35-0.93-2.42-0.93c-0.91,0-1.78,0.25-2.61,0.76c-0.83,0.51-1.72,1.33-2.67,2.47V50.92z"></path>		<path class="st5" d="M375.22,50.21c-1.12,1.93-2.59,3.42-4.4,4.49c-1.81,1.07-3.78,1.6-5.9,1.6c-3.2,0-5.84-0.99-7.9-2.98   c-2.07-1.99-3.1-4.51-3.1-7.58c0-3.24,1.12-5.89,3.35-7.94c2.23-2.06,5.12-3.09,8.68-3.09c1.16,0,2.42,0.13,3.78,0.38   c1.37,0.25,2.17,0.38,2.42,0.38c0.4,0,0.72-0.06,0.96-0.17c0.24-0.11,0.43-0.31,0.59-0.59h0.92v1.52c0,0.98,0.02,1.93,0.05,2.86   c0.03,0.93,0.09,1.84,0.16,2.73h-0.87c-0.46-1.7-1.37-3.1-2.74-4.2c-1.37-1.1-2.86-1.65-4.45-1.65c-1.89,0-3.43,0.8-4.62,2.4   c-1.19,1.6-1.79,3.7-1.79,6.29c0,2.56,0.68,4.64,2.03,6.25c1.36,1.61,3.09,2.42,5.19,2.42c1.35,0,2.61-0.3,3.78-0.91   c1.17-0.6,2.24-1.5,3.2-2.69L375.22,50.21z"></path>		<path class="st5" d="M400,49.53c-1.16,2.24-2.6,3.93-4.33,5.07c-1.73,1.14-3.75,1.71-6.04,1.71c-2.96,0-5.47-1.04-7.52-3.11   c-2.06-2.07-3.09-4.61-3.09-7.6c0-3.08,1.05-5.66,3.16-7.75c2.11-2.08,4.71-3.12,7.81-3.12c2.75,0,5.02,0.81,6.81,2.42   c1.79,1.61,2.82,3.76,3.09,6.46h-14.52v0.16c0,3.05,0.62,5.4,1.86,7.05c1.24,1.65,3.01,2.48,5.3,2.48c1.24,0,2.43-0.35,3.57-1.06   c1.14-0.71,2.16-1.75,3.07-3.14L400,49.53z M385.37,42.36h8.17c-0.02-1.86-0.42-3.37-1.21-4.53c-0.79-1.16-1.78-1.75-2.97-1.75   c-1.14,0-2.07,0.56-2.78,1.69C385.86,38.91,385.46,40.44,385.37,42.36z"></path>	</g></g></svg>