<svg width="167" height="60" viewBox="0 0 167 60" fill="none" xmlns="http://www.w3.org/2000/svg">
<path d="M0 37.3214C6.25252 56.7114 32.9488 60.7285 49.0084 51.7964C54.5595 48.7178 59.3618 43.8432 61.2504 37.3214C60.9199 44.2686 56.2187 50.5001 50.499 54.2404C38.8034 61.9235 22.447 61.9168 10.7514 54.2404C5.03844 50.5001 0.337245 44.2686 0 37.3281V37.3214Z" fill="url(#paint0_linear_18442_12441)"/>
<path d="M7.67206 38.2727C15.314 49.6961 31.4411 51.8228 43.3795 46.7322C47.386 44.9633 51.0418 42.2358 53.5846 38.2659C53.0517 40.5682 51.8377 42.7219 50.2998 44.5988C42.1857 54.0305 27.0501 55.428 16.5618 49.291C12.4407 46.8537 8.81195 42.9717 7.67881 38.2727H7.67206Z" fill="url(#paint1_linear_18442_12441)"/>
<path d="M28.5776 43.4461C17.9004 44.7829 10.7171 34.1494 13.7658 24.1371C14.9664 19.5124 18.5682 15.3872 23.1412 13.9897C27.5996 12.5989 32.5099 12.5652 36.7119 14.8336C49.2237 21.504 45.2308 43.0343 29.7849 40.9481C24.6723 40.2932 20.4028 35.655 20.2544 30.5779C20.0723 28.1744 20.5714 25.8654 21.3943 23.759C21.4685 23.5632 21.772 23.6375 21.7517 23.84C21.374 27.9381 21.9609 32.5696 25.1377 35.2769C28.011 37.7749 32.3884 37.9842 35.5788 36.2626C39.0119 34.487 40.7319 30.74 40.7251 26.8781C40.8735 17.6422 32.1793 11.6267 23.5931 15.1644C19.5866 16.778 17.4755 20.8019 16.8077 24.8527C16.0995 28.782 16.1197 33.0287 18.3658 36.5057C20.4567 39.9421 24.1866 42.4132 28.5776 43.0883C28.7799 43.1085 28.7799 43.4326 28.5776 43.4529V43.4461Z" fill="url(#paint2_linear_18442_12441)"/>
<path d="M29.2056 10.7482C32.1708 10.7482 34.5746 8.34217 34.5746 5.37412C34.5746 2.40608 32.1708 0 29.2056 0C26.2405 0 23.8367 2.40608 23.8367 5.37412C23.8367 8.34217 26.2405 10.7482 29.2056 10.7482Z" fill="url(#paint3_linear_18442_12441)"/>
<path d="M87.3459 35.5015C87.0099 35.7844 86.4902 36.0312 85.7814 36.2421C85.0727 36.4529 84.301 36.5609 83.4663 36.5609C82.4636 36.5609 81.5974 36.4118 80.8835 36.1186C80.1643 35.8255 79.676 35.4192 79.4135 34.905C79.151 34.365 78.8256 33.6708 78.4423 32.812C78.0591 31.9583 77.6601 31.0018 77.2402 29.9476C76.8202 28.8934 76.3897 27.7723 75.9487 26.5895C75.5077 25.4068 75.0825 24.2034 74.673 22.9846C74.2635 21.7659 73.8856 20.5677 73.5233 19.3952C73.1664 18.2227 72.8514 17.1222 72.5889 16.0885C72.9248 15.7594 73.4078 15.4611 74.0431 15.1937C74.6783 14.9263 75.3555 14.7875 76.0694 14.7875C76.9566 14.7875 77.6811 14.9675 78.2428 15.3326C78.8046 15.6977 79.2193 16.3714 79.4818 17.3536C80.1275 19.6523 80.7785 21.8482 81.4399 23.9463C82.0962 26.0444 82.7891 28.23 83.5031 30.5081H83.7183C84.364 28.302 85.0307 25.9004 85.7132 23.2983C86.3957 20.6962 87.0466 18.1044 87.6714 15.5229C88.1018 15.312 88.5638 15.1372 89.052 14.9932C89.5403 14.8543 90.0967 14.7823 90.7215 14.7823C91.6087 14.7823 92.3594 14.9777 92.9841 15.3634C93.6036 15.7491 93.9185 16.3919 93.9185 17.2816C93.9185 17.7958 93.7925 18.5467 93.5406 19.534C93.2886 20.5214 92.9683 21.627 92.5693 22.8561C92.1756 24.0851 91.7294 25.3708 91.2412 26.7078C90.7477 28.0449 90.2595 29.3048 89.7713 30.4876C89.2778 31.6704 88.8211 32.7143 88.3906 33.6194C87.9601 34.5245 87.6136 35.1518 87.3511 35.5015H87.3459Z" fill="#642E87"/>
<path d="M100.63 15.5229C101.034 15.2864 101.654 15.0652 102.478 14.8544C103.302 14.6435 104.137 14.5356 104.972 14.5356C106.169 14.5356 107.229 14.7053 108.148 15.0447C109.072 15.3841 109.66 15.9189 109.927 16.644C110.358 17.8628 110.825 19.2821 111.329 20.902C111.833 22.5219 112.337 24.1932 112.836 25.9159C113.335 27.6387 113.828 29.3409 114.306 31.0173C114.783 32.6938 115.203 34.18 115.56 35.4656C115.272 35.7947 114.841 36.057 114.269 36.2575C113.697 36.4581 113.014 36.5558 112.222 36.5558C111.649 36.5558 111.161 36.5095 110.767 36.417C110.374 36.3244 110.048 36.1804 109.796 35.9953C109.544 35.8101 109.339 35.5633 109.187 35.2547C109.03 34.9513 108.893 34.5965 108.773 34.2005L108.127 31.7733H101.628C101.433 32.4778 101.244 33.2029 101.055 33.9537C100.861 34.7045 100.672 35.4296 100.483 36.1341C100.147 36.2524 99.7954 36.3501 99.4227 36.4324C99.05 36.5147 98.6037 36.5558 98.0788 36.5558C96.8556 36.5558 95.9526 36.3501 95.3699 35.9387C94.782 35.5273 94.488 34.9616 94.488 34.2314C94.488 33.9023 94.5352 33.5731 94.6297 33.2492C94.7242 32.92 94.8345 32.5344 94.9552 32.087C95.1232 31.4544 95.3542 30.6676 95.6534 29.7317C95.9526 28.7958 96.2834 27.7775 96.6404 26.6873C96.9973 25.5971 97.3806 24.476 97.79 23.3293C98.1943 22.1825 98.5775 21.0974 98.9397 20.074C99.2967 19.0558 99.6275 18.1456 99.9267 17.3485C100.226 16.5514 100.457 15.9395 100.625 15.5178L100.63 15.5229ZM104.94 20.0586C104.604 21.0408 104.226 22.1413 103.806 23.3498C103.386 24.5583 103.008 25.7822 102.678 27.0267H107.129C106.793 25.7617 106.452 24.5223 106.106 23.3138C105.759 22.1053 105.439 21.0203 105.155 20.0586H104.94Z" fill="#642E87"/>
<path d="M133.559 30.961C133.249 31.2182 132.845 31.4239 132.357 31.5781C131.863 31.7324 131.296 31.8044 130.651 31.8044C129.79 31.8044 129.076 31.6964 128.514 31.4856C127.952 31.2747 127.585 30.9096 127.417 30.3954C126.745 28.3332 126.194 26.6619 125.763 25.3814C125.333 24.1061 124.997 22.985 124.76 22.0233H124.582C124.508 23.4067 124.456 24.6666 124.419 25.8031C124.382 26.9396 124.356 28.0504 124.346 29.1252C124.335 30.2051 124.309 31.2953 124.272 32.3958C124.235 33.4963 124.183 34.7151 124.109 36.0521C123.8 36.1704 123.39 36.2681 122.886 36.3504C122.382 36.4327 121.884 36.4738 121.38 36.4738C120.324 36.4738 119.505 36.3093 118.917 35.9801C118.33 35.651 118.036 35.0545 118.036 34.1854L119.075 16.2483C119.264 15.9449 119.684 15.6158 120.33 15.2661C120.975 14.9164 121.884 14.7364 123.06 14.7364C124.33 14.7364 125.322 14.9318 126.041 15.3175C126.761 15.7032 127.286 16.3306 127.622 17.1997C127.837 17.7602 128.073 18.4082 128.32 19.1333C128.572 19.8584 128.824 20.6092 129.076 21.3857C129.328 22.1571 129.574 22.9284 129.811 23.6895C130.047 24.4506 130.267 25.1397 130.456 25.7465H130.635C131.207 23.7769 131.785 21.8742 132.357 20.0281C132.929 18.187 133.459 16.6443 133.937 15.4049C134.294 15.2198 134.756 15.0604 135.318 14.9318C135.879 14.8033 136.509 14.7364 137.202 14.7364C138.373 14.7364 139.334 14.9061 140.074 15.2455C140.814 15.5849 141.245 16.0735 141.365 16.706C141.46 17.174 141.565 17.8991 141.67 18.871C141.78 19.8429 141.89 20.9383 142.011 22.1622C142.132 23.381 142.253 24.6717 142.368 26.0294C142.489 27.3921 142.604 28.6983 142.709 29.9531C142.819 31.2079 142.909 32.3547 142.977 33.3986C143.05 34.4425 143.098 35.2448 143.119 35.8104C142.709 36.047 142.284 36.2167 141.843 36.3195C141.402 36.4275 140.83 36.479 140.137 36.479C139.229 36.479 138.462 36.3247 137.838 36.0213C137.213 35.7179 136.882 35.1213 136.83 34.2265C136.688 31.6707 136.599 29.372 136.562 27.3304C136.525 25.2888 136.473 23.5764 136.399 22.1931H136.221C135.979 23.1084 135.633 24.2552 135.181 25.6385C134.724 27.0219 134.173 28.7909 133.527 30.9508L133.559 30.961Z" fill="#642E87"/>
<path d="M151.943 15.5229C152.348 15.2864 152.967 15.0652 153.791 14.8544C154.616 14.6435 155.45 14.5356 156.285 14.5356C157.482 14.5356 158.542 14.7053 159.461 15.0447C160.385 15.3841 160.973 15.9189 161.241 16.644C161.671 17.8628 162.138 19.2821 162.642 20.902C163.146 22.5219 163.65 24.1932 164.149 25.9159C164.648 27.6387 165.141 29.3409 165.619 31.0173C166.097 32.6938 166.517 34.18 166.874 35.4656C166.585 35.7947 166.154 36.057 165.582 36.2575C165.01 36.4581 164.328 36.5558 163.535 36.5558C162.963 36.5558 162.474 36.5095 162.081 36.417C161.687 36.3244 161.361 36.1804 161.109 35.9953C160.857 35.8101 160.653 35.5633 160.5 35.2547C160.343 34.9513 160.206 34.5965 160.086 34.2005L159.44 31.7733H152.941C152.747 32.4778 152.558 33.2029 152.369 33.9537C152.174 34.7045 151.985 35.4296 151.796 36.1341C151.46 36.2524 151.109 36.3501 150.736 36.4324C150.363 36.5147 149.917 36.5558 149.392 36.5558C148.169 36.5558 147.266 36.3501 146.683 35.9387C146.095 35.5273 145.801 34.9616 145.801 34.2314C145.801 33.9023 145.848 33.5731 145.943 33.2492C146.037 32.92 146.148 32.5344 146.268 32.087C146.436 31.4544 146.667 30.6676 146.967 29.7317C147.266 28.7958 147.597 27.7775 147.954 26.6873C148.311 25.5971 148.694 24.476 149.103 23.3293C149.508 22.1825 149.891 21.0974 150.253 20.074C150.61 19.0558 150.941 18.1456 151.24 17.3485C151.539 16.5514 151.77 15.9395 151.938 15.5178L151.943 15.5229ZM156.253 20.0586C155.917 21.0408 155.539 22.1413 155.119 23.3498C154.7 24.5583 154.322 25.7822 153.991 27.0267H158.443C158.107 25.7617 157.765 24.5223 157.419 23.3138C157.072 22.1053 156.752 21.0203 156.469 20.0586H156.253Z" fill="#642E87"/>
<path d="M78.2516 42.1732H78.6506L79.7793 44.9168L80.9132 42.1732H81.3122L79.9577 45.3765H79.5955L78.2516 42.1732Z" fill="#642E87"/>
<path d="M81.8367 42.1732H82.2147V45.3765H81.8367V42.1732Z" fill="#642E87"/>
<path d="M83.0091 42.1732H83.8963C84.4318 42.1732 84.6786 42.2325 84.8518 42.3363C85.13 42.4945 85.3138 42.8356 85.3138 43.1965C85.3138 43.414 85.256 43.6414 85.109 43.8243C84.9043 44.0863 84.6628 44.1456 84.3478 44.1753L85.193 45.3765H84.7783L83.8176 43.9776H83.9278C84.1693 43.9776 84.5001 43.9776 84.6838 43.8144C84.8623 43.6513 84.941 43.4535 84.941 43.2262C84.941 42.9988 84.8151 42.7367 84.6051 42.6082C84.4371 42.5044 84.2218 42.4896 83.9174 42.4896H83.3819V45.3765H82.9987V42.1732H83.0091Z" fill="#642E87"/>
<path d="M86.4043 42.4896H85.5696V42.1732H87.6327V42.4896H86.7928V45.3765H86.4096V42.4896H86.4043Z" fill="#642E87"/>
<path d="M88.5109 42.1732V44.205C88.5109 44.4472 88.5109 44.635 88.6736 44.8525C88.7944 45.0107 89.0201 45.1195 89.2668 45.1195C89.5135 45.1195 89.7341 45.0157 89.8496 44.8575C90.0123 44.6449 90.0123 44.4571 90.0123 44.2099V42.1781H90.3903V44.2099C90.3903 44.5807 90.343 44.9514 90.0018 45.1986C89.8128 45.3518 89.5608 45.4408 89.2668 45.4408C89.0253 45.4408 88.7261 45.3765 88.5161 45.1986C88.1591 44.9267 88.1276 44.5609 88.1276 44.2099V42.1781H88.5109V42.1732Z" fill="#642E87"/>
<path d="M91.1552 45.3765H90.7457L92.1684 42.1732H92.5359L93.9428 45.3765H93.5281L93.1344 44.4768H91.549L91.1552 45.3765ZM92.3364 42.5736L91.6592 44.1802H93.0189L92.3364 42.5736Z" fill="#642E87"/>
<path d="M94.4634 42.1732H94.8467V45.0602H96.1434V45.3765H94.4634V42.1732Z" fill="#642E87"/>
<path d="M97.9719 45.3765H97.5624L98.9851 42.1732H99.3526L100.76 45.3765H100.345L99.9511 44.4768H98.3656L97.9719 45.3765ZM99.1531 42.5736L98.4759 44.1802H99.8355L99.1531 42.5736Z" fill="#642E87"/>
<path d="M101.488 44.4865C101.546 45.0204 101.956 45.1341 102.171 45.1341C102.523 45.1341 102.853 44.877 102.853 44.5211C102.853 44.0712 102.444 43.9723 102.05 43.8488C101.772 43.7697 101.179 43.6065 101.179 42.9985C101.168 42.43 101.672 42.1136 102.192 42.1136C102.617 42.1136 103.105 42.3361 103.158 42.9392H102.78C102.738 42.7315 102.628 42.4152 102.176 42.4152C101.835 42.4152 101.557 42.6327 101.557 42.9639C101.557 43.3544 101.887 43.4483 102.402 43.6115C102.722 43.7301 103.231 43.8982 103.231 44.4865C103.231 45.0105 102.811 45.4257 102.176 45.4257C101.604 45.4257 101.131 45.0896 101.11 44.4766H101.494L101.488 44.4865Z" fill="#642E87"/>
<path d="M104.409 42.4896H103.574V42.1732H105.637V42.4896H104.797V45.3765H104.414V42.4896H104.409Z" fill="#642E87"/>
<path d="M106.112 42.1732H107C107.535 42.1732 107.782 42.2325 107.955 42.3363C108.233 42.4945 108.417 42.8356 108.417 43.1965C108.417 43.414 108.359 43.6414 108.212 43.8243C108.008 44.0863 107.766 44.1456 107.451 44.1753L108.296 45.3765H107.882L106.921 43.9776H107.031C107.273 43.9776 107.603 43.9776 107.787 43.8144C107.966 43.6513 108.044 43.4535 108.044 43.2262C108.044 42.9988 107.918 42.7367 107.708 42.6082C107.54 42.5044 107.325 42.4896 107.021 42.4896H106.485V45.3765H106.102V42.1732H106.112Z" fill="#642E87"/>
<path d="M108.84 43.7846C108.84 42.7959 109.653 42.1187 110.614 42.1187C111.575 42.1187 112.389 42.8355 112.389 43.7797C112.389 44.7239 111.617 45.4407 110.614 45.4407C109.611 45.4407 108.84 44.7091 108.84 43.7945V43.7846ZM109.223 43.7698C109.223 44.5212 109.827 45.1144 110.619 45.1144C111.412 45.1144 112.016 44.5014 112.016 43.7698C112.016 43.0382 111.428 42.4252 110.619 42.4252C109.811 42.4252 109.228 43.0233 109.228 43.7649L109.223 43.7698Z" fill="#642E87"/>
<path d="M113.058 42.1732H113.442V45.0602H114.738V45.3765H113.058V42.1732Z" fill="#642E87"/>
<path d="M114.829 43.7845C114.829 42.7958 115.643 42.1186 116.603 42.1186C117.564 42.1186 118.378 42.8354 118.378 43.7796C118.378 44.7238 117.606 45.4406 116.603 45.4406C115.601 45.4406 114.829 44.7089 114.829 43.7944V43.7845ZM115.212 43.7697C115.212 44.5211 115.816 45.1143 116.609 45.1143C117.401 45.1143 118.005 44.5013 118.005 43.7697C118.005 43.0381 117.417 42.4251 116.609 42.4251C115.8 42.4251 115.217 43.0232 115.217 43.7647L115.212 43.7697Z" fill="#642E87"/>
<path d="M121.831 43.0032C121.726 42.8647 121.594 42.7461 121.447 42.6571C121.227 42.5138 120.959 42.4297 120.655 42.4297C119.909 42.4297 119.264 42.9686 119.264 43.7694C119.264 44.5702 119.915 45.119 120.66 45.119C121.017 45.119 121.337 45.0003 121.568 44.8273C121.81 44.6493 121.972 44.4071 122.03 44.155H120.34V43.8584H122.476C122.476 44.0462 122.424 44.2786 122.324 44.4763C122.03 45.0794 121.348 45.4304 120.665 45.4304C119.673 45.4304 118.886 44.7136 118.886 43.7645C118.886 42.8153 119.684 42.1084 120.671 42.1084C121.358 42.1084 121.999 42.4742 122.266 42.9982H121.836L121.831 43.0032Z" fill="#642E87"/>
<path d="M123.917 44.2544L122.82 42.1732H123.235L124.106 43.9083L124.978 42.1732H125.392L124.295 44.2544V45.3815H123.912V44.2544H123.917Z" fill="#642E87"/>
<path d="M130.138 43.4038L129.534 44.4815L130.296 45.2131L130.054 45.4307L129.351 44.7485C129.12 45.1736 128.868 45.4356 128.322 45.4356C127.697 45.4356 127.298 44.9956 127.298 44.526C127.298 43.9921 127.781 43.7103 128.117 43.562C127.886 43.3346 127.702 43.1369 127.692 42.8403C127.692 42.4448 128.033 42.1136 128.484 42.1136C128.936 42.1136 129.282 42.4448 129.282 42.8403C129.282 43.2753 128.925 43.4483 128.605 43.5917L129.298 44.2591L129.765 43.3989H130.128L130.138 43.4038ZM128.338 43.7697C127.823 43.9971 127.676 44.2442 127.671 44.5062C127.671 44.8375 127.949 45.1242 128.348 45.1242C128.747 45.1242 128.931 44.9067 129.125 44.5359L128.338 43.7697ZM128.49 42.3904C128.206 42.3904 128.033 42.6129 128.033 42.8205C128.033 43.0726 128.248 43.2457 128.411 43.3989C128.778 43.2308 128.967 43.1221 128.967 42.8354C128.967 42.603 128.778 42.3904 128.495 42.3904H128.49Z" fill="#642E87"/>
<path d="M132.369 45.3765V42.1732H132.905L134.165 44.8624L135.419 42.1732H135.955V45.3765H135.598L135.608 42.5242L134.291 45.3765H134.049L132.726 42.5242L132.737 45.3765H132.38H132.369Z" fill="#642E87"/>
<path d="M136.873 45.3765H136.464L137.886 42.1732H138.254L139.661 45.3765H139.246L138.852 44.4768H137.267L136.873 45.3765ZM138.054 42.5736L137.377 44.1802H138.737L138.054 42.5736Z" fill="#642E87"/>
<path d="M142.562 44.8473V42.168H142.925V45.3713H142.557L140.536 42.6722L140.546 45.3713H140.179V42.168H140.567L142.562 44.8473Z" fill="#642E87"/>
<path d="M143.737 42.1732H144.755C145.238 42.1732 145.752 42.2721 146.094 42.6527C146.372 42.9394 146.503 43.3151 146.503 43.7699C146.503 44.7339 145.92 45.3765 144.776 45.3765H143.742V42.1732H143.737ZM144.115 45.0602H144.792C145.663 45.0602 146.12 44.551 146.12 43.7848C146.12 43.414 146.015 43.0828 145.789 42.8505C145.574 42.6329 145.254 42.4896 144.792 42.4896H144.115V45.0602Z" fill="#642E87"/>
<path d="M147.168 42.1732H147.546V45.3765H147.168V42.1732Z" fill="#642E87"/>
<path d="M148.34 42.1732H149.227C149.763 42.1732 150.01 42.2325 150.183 42.3363C150.461 42.4945 150.645 42.8356 150.645 43.1965C150.645 43.414 150.587 43.6414 150.44 43.8243C150.235 44.0863 149.994 44.1456 149.679 44.1753L150.524 45.3765H150.109L149.149 43.9776H149.259C149.5 43.9776 149.831 43.9776 150.015 43.8144C150.193 43.6513 150.272 43.4535 150.272 43.2262C150.272 42.9988 150.146 42.7367 149.936 42.6082C149.768 42.5044 149.553 42.4896 149.248 42.4896H148.713V45.3765H148.33V42.1732H148.34Z" fill="#642E87"/>
<path d="M152.544 45.3765H152.135L153.557 42.1732H153.925L155.332 45.3765H154.917L154.523 44.4768H152.938L152.544 45.3765ZM153.725 42.5736L153.048 44.1802H154.408L153.725 42.5736Z" fill="#642E87"/>
<path d="M156.71 42.1732C157.188 42.1732 157.413 42.2276 157.623 42.3759C157.849 42.539 157.986 42.8406 157.986 43.1372C157.986 43.4338 157.844 43.7502 157.634 43.8985C157.408 44.0616 157.177 44.116 156.736 44.116H156.19V45.3765H155.807V42.1732H156.705H156.71ZM156.195 43.7996H156.736C157.02 43.7996 157.198 43.7699 157.366 43.6661C157.513 43.5771 157.618 43.3695 157.618 43.1471C157.618 42.9246 157.513 42.712 157.361 42.623C157.193 42.5192 157.014 42.4896 156.726 42.4896H156.19V43.8045L156.195 43.7996Z" fill="#642E87"/>
<path d="M159.39 42.1732C159.868 42.1732 160.094 42.2276 160.304 42.3759C160.529 42.539 160.666 42.8406 160.666 43.1372C160.666 43.4338 160.524 43.7502 160.314 43.8985C160.088 44.0616 159.857 44.116 159.416 44.116H158.87V45.3765H158.487V42.1732H159.385H159.39ZM158.876 43.7996H159.416C159.7 43.7996 159.878 43.7699 160.046 43.6661C160.193 43.5771 160.298 43.3695 160.298 43.1471C160.298 42.9246 160.193 42.712 160.041 42.623C159.873 42.5192 159.695 42.4896 159.406 42.4896H158.87V43.8045L158.876 43.7996Z" fill="#642E87"/>
<defs>
<linearGradient id="paint0_linear_18442_12441" x1="30.6252" y1="37.3214" x2="30.6252" y2="60.0002" gradientUnits="userSpaceOnUse">
<stop stop-color="#E62375"/>
<stop offset="1" stop-color="#642E87"/>
</linearGradient>
<linearGradient id="paint1_linear_18442_12441" x1="30.6283" y1="38.2659" x2="30.6283" y2="53.0069" gradientUnits="userSpaceOnUse">
<stop stop-color="#E62375"/>
<stop offset="1" stop-color="#642E87"/>
</linearGradient>
<linearGradient id="paint2_linear_18442_12441" x1="28.5941" y1="13.0225" x2="28.5941" y2="43.5604" gradientUnits="userSpaceOnUse">
<stop stop-color="#E62375"/>
<stop offset="1" stop-color="#642E87"/>
</linearGradient>
<linearGradient id="paint3_linear_18442_12441" x1="29.2057" y1="0" x2="29.2057" y2="10.7482" gradientUnits="userSpaceOnUse">
<stop stop-color="#E62375"/>
<stop offset="1" stop-color="#642E87"/>
</linearGradient>
</defs>
</svg>
